<svg width="262" height="44" viewBox="0 0 262 44" fill="none" xmlns="http://www.w3.org/2000/svg">
<g clip-path="url(#clip0_709_160)">
<g opacity="0.85">
<path d="M41.4223 16.959V0.0927734H25.4327L20.7111 5.07222L15.9889 0.0927734H0V16.959L4.72154 21.9357L0 26.9152V43.7787H15.9896L20.7111 38.7992L25.4327 43.7787H41.4223V26.9145L36.7007 21.935L41.4223 16.959ZM87.1992 16.959V0.0927734H45.7776V43.7787H87.1992V26.9145L82.4777 21.935L87.1992 16.959ZM125.129 0.0927734H91.5518V43.7787H132.974V8.36883L125.129 0.0934504V0.0927734ZM170.859 0.0927734H137.285V16.959L142.007 21.9357L137.285 26.9152V43.7787H153.276L157.997 38.7992L162.718 43.7787H178.708V8.36883L170.859 0.0934504V0.0927734Z" fill="#0A5C2E"/>
<path d="M67.3751 7.29883C66.8214 7.29974 66.2691 7.3546 65.7261 7.46264V9.94154C66.2631 9.79229 66.8177 9.71512 67.3751 9.71206C69.1452 9.71206 70.8423 10.454 72.0939 11.774C73.3455 13.094 74.0482 14.8838 74.0482 16.75C74.0482 18.617 73.3455 20.4074 72.0939 21.7268C70.8423 23.0468 69.1452 23.788 67.3757 23.788C66.8182 23.7865 66.2634 23.7104 65.7261 23.5619V26.0428C66.9513 26.2865 68.2124 26.2574 69.4268 25.9575C70.6504 25.6532 71.7939 25.0887 72.7796 24.3025C73.7846 23.499 74.6127 22.4965 75.2118 21.3578C75.8214 20.2 76.194 18.9322 76.3077 17.6287C76.4232 16.3205 76.2782 15.0024 75.8813 13.7506C75.49 12.5133 74.8516 11.3683 74.0048 10.3849C73.175 9.42122 72.1502 8.6446 70.998 8.1064C69.8635 7.57743 68.6268 7.30362 67.3751 7.30424V7.29883ZM113.828 32.4472C112.245 32.4413 110.704 31.9457 109.415 31.0284C108.109 30.1057 107.092 28.7959 106.492 27.2633C105.892 25.7233 105.737 24.0453 106.045 22.4213C106.353 20.7967 107.11 19.3034 108.223 18.133C109.335 16.9619 110.752 16.1645 112.292 15.8423C113.835 15.5198 115.44 15.6874 116.883 16.3215C118.335 16.9565 119.575 18.0308 120.449 19.4083C121.326 20.8027 121.79 22.4173 121.787 24.0649C121.785 26.2892 120.945 28.4222 119.453 29.9934C117.959 31.5652 115.937 32.4479 113.828 32.4472ZM113.828 18.0951C112.7 18.0974 111.601 18.4488 110.682 19.101C109.74 19.7709 109.016 20.7022 108.598 21.7796C108.169 22.8765 108.057 24.0718 108.275 25.2292C108.488 26.3755 109.026 27.4364 109.825 28.2855C110.602 29.1124 111.613 29.6825 112.723 29.9196C113.822 30.1502 114.965 30.0313 115.993 29.5798C117.04 29.117 117.925 28.3513 118.534 27.3811C119.159 26.388 119.49 25.2378 119.487 24.0642C119.486 22.4815 118.89 20.9639 117.828 19.8449C116.767 18.726 115.328 18.0964 113.828 18.0951Z" fill="white"/>
<path d="M112.255 38.3063C109.185 38.3063 106.184 37.3457 103.632 35.5465C101.079 33.7472 99.0899 31.1898 97.9154 28.1991C96.7396 25.1915 96.434 21.9137 97.0334 18.7405C97.6318 15.565 99.1109 12.6482 101.282 10.3588C103.453 8.06947 106.219 6.51052 109.23 5.87962C112.243 5.24804 115.379 5.57369 118.198 6.81107C121.034 8.04984 123.458 10.1483 125.164 12.8404C126.869 15.5325 127.78 18.6978 127.78 21.9356C127.775 26.2767 126.138 30.4377 123.228 33.5076C120.317 36.5767 116.371 38.3029 112.255 38.3063ZM112.255 7.97808C109.637 7.97808 107.078 8.79648 104.902 10.3304C102.726 11.8636 101.029 14.044 100.027 16.594C99.0249 19.1584 98.764 21.9532 99.2747 24.6588C99.7858 27.3665 101.046 29.8535 102.896 31.8051C104.748 33.7573 107.105 35.0868 109.673 35.6257C112.24 36.1645 114.901 35.8869 117.319 34.8309C119.737 33.7749 121.805 31.9858 123.259 29.6904C124.713 27.3956 125.489 24.6961 125.489 21.9356C125.486 18.2355 124.09 14.6871 121.609 12.0701C119.128 9.45378 115.763 7.98147 112.255 7.97808ZM151.218 22.7567C150.467 21.9072 149.93 20.8913 149.65 19.7931C149.364 18.6825 149.34 17.5205 149.58 16.399C149.814 15.2881 150.309 14.2488 151.023 13.3664C151.721 12.5028 152.622 11.8263 153.646 11.3979C154.653 10.9779 155.752 10.8247 156.836 10.9532C157.919 11.0818 158.954 11.4879 159.853 12.1357C160.762 12.7944 161.497 13.6642 161.995 14.6701C162.504 15.6942 162.767 16.8227 162.763 17.9661H165.053C165.056 16.4283 164.699 14.9112 164.012 13.5356C163.339 12.1848 162.348 11.0182 161.123 10.1368C159.925 9.27443 158.527 8.73224 157.061 8.56159C155.603 8.39463 154.126 8.6068 152.773 9.17759C151.399 9.76017 150.191 10.6758 149.259 11.842C148.304 13.0346 147.646 14.4365 147.338 15.9326C147.025 17.4426 147.067 19.0047 147.46 20.4957C147.846 21.9701 148.578 23.3313 149.594 24.4666L151.218 22.7567Z" fill="white"/>
<path d="M158.039 19.9674L145.138 33.5735L146.756 35.28L158.039 23.3811L169.322 35.28L170.939 33.5742L158.039 19.9674ZM70.859 31.6084C70.1544 32.5131 69.2296 33.2221 68.173 33.6676C67.1332 34.1037 65.9962 34.2556 64.8784 34.1076C63.7543 33.9547 62.69 33.5096 61.7916 32.8167C60.8723 32.1075 60.145 31.1794 59.6763 30.1171C59.1966 29.0368 58.9839 27.8569 59.0562 26.677C59.1279 25.4931 59.4813 24.3484 60.0851 23.3472C60.6777 22.3571 61.5114 21.5331 62.5085 20.9523C63.4856 20.385 64.5954 20.0861 65.7252 20.0858V17.6712C64.2184 17.6737 62.7387 18.0719 61.4342 18.8261C60.1037 19.5978 58.9886 20.6919 58.1918 22.0076C57.3764 23.3511 56.8959 24.8708 56.7905 26.4387C56.681 28.0114 56.9486 29.5874 57.571 31.0357C58.1807 32.46 59.1335 33.7112 60.3444 34.6776C61.5284 35.6208 62.9374 36.2399 64.433 36.4741C65.9168 36.7023 67.4304 36.5351 68.8371 35.9867C70.2582 35.427 71.5129 34.5137 72.4823 33.3332L70.859 31.6084ZM30.9842 23.0047V20.5888H21.5655V20.4053L28.5561 10.3639L26.7088 8.93555L21.5729 16.316V11.1423H19.2849L19.268 19.6174L15.5043 25.0267C14.2608 21.0552 12.4067 15.1314 12.2348 14.6786L10.0896 15.5565C10.2494 15.9904 12.2355 22.3427 13.8317 27.4149L9.78027 33.2364L11.6269 34.664L14.9256 29.9208L22.4042 32.8289L23.1982 30.5666L16.4128 27.9232C16.4128 27.8975 16.3958 27.8671 16.3864 27.842L19.752 23.0088L30.9842 23.0047Z" fill="white"/>
</g>
</g>
<path d="M195.924 14V2.64H204.116V4.544H198.116V7.28H201.204C202.473 7.28 203.428 7.57867 204.068 8.176C204.708 8.77333 205.028 9.57333 205.028 10.576C205.028 11.248 204.889 11.84 204.612 12.352C204.334 12.864 203.924 13.2693 203.38 13.568C202.836 13.856 202.148 14 201.316 14H195.924ZM198.116 12.096H201.012C201.438 12.096 201.78 12.0213 202.036 11.872C202.292 11.712 202.478 11.5147 202.596 11.28C202.713 11.0347 202.772 10.7787 202.772 10.512C202.772 10.2453 202.718 10 202.612 9.776C202.516 9.54133 202.34 9.35467 202.084 9.216C201.828 9.06667 201.46 8.992 200.98 8.992H198.116V12.096ZM205.795 11.52C205.795 10.976 205.944 10.5013 206.243 10.096C206.552 9.68 206.979 9.36 207.523 9.136C208.067 8.912 208.691 8.8 209.395 8.8C209.747 8.8 210.104 8.82667 210.467 8.88C210.83 8.93333 211.144 9.01867 211.411 9.136V8.688C211.411 8.15467 211.251 7.744 210.931 7.456C210.622 7.168 210.158 7.024 209.539 7.024C209.08 7.024 208.643 7.104 208.227 7.264C207.811 7.424 207.374 7.65867 206.915 7.968L206.227 6.56C206.782 6.19733 207.347 5.92533 207.923 5.744C208.51 5.56267 209.123 5.472 209.763 5.472C210.958 5.472 211.886 5.77067 212.547 6.368C213.219 6.96533 213.555 7.81867 213.555 8.928V11.6C213.555 11.824 213.592 11.984 213.667 12.08C213.752 12.176 213.886 12.2347 214.067 12.256V14C213.875 14.032 213.699 14.0587 213.539 14.08C213.39 14.1013 213.262 14.112 213.155 14.112C212.728 14.112 212.403 14.016 212.179 13.824C211.966 13.632 211.832 13.3973 211.779 13.12L211.731 12.688C211.368 13.1573 210.915 13.52 210.371 13.776C209.827 14.032 209.272 14.16 208.707 14.16C208.152 14.16 207.651 14.048 207.203 13.824C206.766 13.5893 206.419 13.2747 206.163 12.88C205.918 12.4747 205.795 12.0213 205.795 11.52ZM211.011 11.952C211.128 11.824 211.224 11.696 211.299 11.568C211.374 11.44 211.411 11.3227 211.411 11.216V10.368C211.155 10.2613 210.878 10.1813 210.579 10.128C210.28 10.064 209.998 10.032 209.731 10.032C209.176 10.032 208.718 10.1547 208.355 10.4C208.003 10.6347 207.827 10.9493 207.827 11.344C207.827 11.5573 207.886 11.76 208.003 11.952C208.12 12.144 208.291 12.2987 208.515 12.416C208.739 12.5333 209.006 12.592 209.315 12.592C209.635 12.592 209.95 12.5333 210.259 12.416C210.568 12.288 210.819 12.1333 211.011 11.952ZM215.559 14V5.616H217.703V8.816H221.095V5.616H223.239V14H221.095V10.608H217.703V14H215.559ZM225.199 14V5.616H227.343V8.816H230.735V5.616H232.879V14H230.735V10.608H227.343V14H225.199ZM234.84 14V5.616H236.984V8.256H238.456C239.469 8.256 240.242 8.512 240.776 9.024C241.309 9.536 241.576 10.2133 241.576 11.056C241.576 11.6213 241.458 12.128 241.224 12.576C241 13.024 240.669 13.376 240.232 13.632C239.794 13.8773 239.25 14 238.6 14H234.84ZM236.984 12.368H238.264C238.562 12.368 238.802 12.3093 238.984 12.192C239.165 12.0747 239.298 11.92 239.384 11.728C239.48 11.536 239.528 11.3173 239.528 11.072C239.528 10.8373 239.485 10.6293 239.4 10.448C239.314 10.256 239.176 10.1067 238.984 10C238.802 9.88267 238.557 9.824 238.248 9.824H236.984V12.368ZM242.888 14V5.632H245.032V14H242.888ZM246.996 14V5.632H249.14V11.136L252.9 5.616H254.852V14H252.708V8.624L248.996 14H246.996ZM250.932 4.832C250.111 4.832 249.465 4.624 248.996 4.208C248.527 3.78133 248.292 3.23733 248.292 2.576H249.62C249.62 2.896 249.727 3.16267 249.94 3.376C250.153 3.58933 250.484 3.696 250.932 3.696C251.38 3.696 251.7 3.59467 251.892 3.392C252.095 3.18933 252.217 2.91733 252.26 2.576H253.588C253.588 3.23733 253.353 3.78133 252.884 4.208C252.415 4.624 251.764 4.832 250.932 4.832ZM195.684 30V21.616H197.828V24.784H198.548L200.82 21.616H203.156L200.18 25.664L203.476 30H201.028L198.516 26.672H197.828V30H195.684ZM208.243 30.16C207.56 30.16 206.947 30.048 206.403 29.824C205.859 29.5893 205.395 29.2693 205.011 28.864C204.638 28.4587 204.35 27.9947 204.147 27.472C203.944 26.9493 203.843 26.4 203.843 25.824C203.843 25.2373 203.944 24.6827 204.147 24.16C204.35 23.6373 204.638 23.1733 205.011 22.768C205.395 22.3627 205.859 22.048 206.403 21.824C206.947 21.5893 207.56 21.472 208.243 21.472C208.926 21.472 209.534 21.5893 210.067 21.824C210.611 22.048 211.075 22.3627 211.459 22.768C211.843 23.1733 212.131 23.6373 212.323 24.16C212.526 24.6827 212.627 25.2373 212.627 25.824C212.627 26.4 212.526 26.9493 212.323 27.472C212.131 27.9947 211.843 28.4587 211.459 28.864C211.086 29.2693 210.627 29.5893 210.083 29.824C209.539 30.048 208.926 30.16 208.243 30.16ZM206.051 25.824C206.051 26.3147 206.147 26.752 206.339 27.136C206.531 27.5093 206.792 27.8027 207.123 28.016C207.454 28.2293 207.827 28.336 208.243 28.336C208.648 28.336 209.016 28.2293 209.347 28.016C209.678 27.792 209.939 27.4933 210.131 27.12C210.334 26.736 210.435 26.2987 210.435 25.808C210.435 25.328 210.334 24.896 210.131 24.512C209.939 24.128 209.678 23.8293 209.347 23.616C209.016 23.4027 208.648 23.296 208.243 23.296C207.827 23.296 207.454 23.408 207.123 23.632C206.792 23.8453 206.531 24.144 206.339 24.528C206.147 24.9013 206.051 25.3333 206.051 25.824ZM214.074 30V21.616H216.314L218.938 26.464L221.578 21.616H223.786V30H221.754V24.576L219.61 28.512H218.266L216.106 24.576V30H214.074ZM225.154 30.112V28.208C225.41 28.1973 225.639 28.1333 225.842 28.016C226.044 27.8987 226.22 27.7013 226.37 27.424C226.53 27.136 226.652 26.736 226.738 26.224C226.834 25.712 226.898 25.056 226.93 24.256L227.042 21.616H233.33V30H231.186V23.488H228.93L228.898 24.464C228.855 25.5627 228.748 26.4747 228.578 27.2C228.407 27.9253 228.167 28.5013 227.858 28.928C227.559 29.344 227.186 29.6427 226.738 29.824C226.29 30.0053 225.762 30.1013 225.154 30.112ZM239.165 30.16C238.493 30.16 237.885 30.048 237.341 29.824C236.797 29.5893 236.333 29.2747 235.949 28.88C235.565 28.4747 235.267 28.016 235.053 27.504C234.851 26.9813 234.749 26.432 234.749 25.856C234.749 25.056 234.925 24.3253 235.277 23.664C235.64 23.0027 236.152 22.4747 236.813 22.08C237.485 21.6747 238.275 21.472 239.181 21.472C240.099 21.472 240.883 21.6747 241.533 22.08C242.184 22.4747 242.68 23.0027 243.021 23.664C243.373 24.3147 243.549 25.0187 243.549 25.776C243.549 25.904 243.544 26.0373 243.533 26.176C243.523 26.304 243.512 26.4107 243.501 26.496H237.021C237.064 26.9227 237.187 27.296 237.389 27.616C237.603 27.936 237.869 28.1813 238.189 28.352C238.52 28.512 238.872 28.592 239.245 28.592C239.672 28.592 240.072 28.4907 240.445 28.288C240.829 28.0747 241.091 27.7973 241.229 27.456L243.069 27.968C242.867 28.3947 242.573 28.7733 242.189 29.104C241.816 29.4347 241.373 29.696 240.861 29.888C240.349 30.0693 239.784 30.16 239.165 30.16ZM236.973 25.136H241.357C241.315 24.7093 241.192 24.3413 240.989 24.032C240.797 23.712 240.541 23.4667 240.221 23.296C239.901 23.1147 239.544 23.024 239.149 23.024C238.765 23.024 238.413 23.1147 238.093 23.296C237.784 23.4667 237.528 23.712 237.325 24.032C237.133 24.3413 237.016 24.7093 236.973 25.136ZM244.855 30V21.616H246.999V24.784H247.719L249.991 21.616H252.327L249.351 25.664L252.647 30H250.199L247.687 26.672H246.999V30H244.855ZM257.447 30.16C256.764 30.16 256.151 30.048 255.607 29.824C255.063 29.5893 254.599 29.2693 254.215 28.864C253.831 28.448 253.532 27.9787 253.319 27.456C253.116 26.9333 253.015 26.384 253.015 25.808C253.015 25.0187 253.191 24.2987 253.543 23.648C253.906 22.9867 254.418 22.4587 255.079 22.064C255.74 21.6693 256.524 21.472 257.431 21.472C258.338 21.472 259.116 21.6693 259.767 22.064C260.418 22.4587 260.903 22.976 261.223 23.616L259.127 24.256C258.946 23.9467 258.706 23.712 258.407 23.552C258.108 23.3813 257.778 23.296 257.415 23.296C257.01 23.296 256.636 23.4027 256.295 23.616C255.964 23.8187 255.703 24.112 255.511 24.496C255.319 24.8693 255.223 25.3067 255.223 25.808C255.223 26.2987 255.319 26.736 255.511 27.12C255.714 27.4933 255.98 27.792 256.311 28.016C256.642 28.2293 257.01 28.336 257.415 28.336C257.671 28.336 257.911 28.2933 258.135 28.208C258.37 28.1227 258.578 28.0053 258.759 27.856C258.94 27.7067 259.074 27.536 259.159 27.344L261.255 27.984C261.063 28.4 260.78 28.7733 260.407 29.104C260.044 29.4347 259.612 29.696 259.111 29.888C258.62 30.0693 258.066 30.16 257.447 30.16Z" fill="white"/>
<defs>
<clipPath id="clip0_709_160">
<rect width="178.708" height="44" fill="white"/>
</clipPath>
</defs>
</svg>
